<svg width="800" height="300" xmlns="http://www.w3.org/2000/svg" preserveAspectRatio="xMidYMid meet">
 <defs>
  <linearGradient y2="0.99979" x2="0.50034" y1="0.00021" x1="0.50034" id="gradient-oval10">
   <stop stop-color="rgb(224, 235, 232)" offset="0"/>
   <stop stop-color="rgb(255, 255, 255)" offset="1"/>
  </linearGradient>
  <linearGradient y2="0.99992" x2="0.50017" y1="0.00008" x1="0.50017" id="gradient-oval9">
   <stop stop-color="rgb(224, 235, 232)" offset="0"/>
   <stop stop-color="rgb(255, 255, 255)" offset="1"/>
  </linearGradient>
 </defs>
 <g>
  <title>background</title>
  <rect fill="none" id="canvas_background" height="602" width="802" y="-1" x="-1"/>
 </g>
 <g>
  <title>Layer 1</title>
  <g id="flagLeft">
   <rect height="144" width="4" y="83" x="65" fill="rgb(255, 255, 255)" id="flagPoleLeft"/>
   <path d="m28.5,108.83l41,-15.33l0,32l-41,-16.67zm0,0" fill="rgb(244, 160, 160)" id="leftGreenFlag2"/>
   <path d="m28.5,88.83l41,-15.33l0,32l-41,-16.67zm0,0" fill="#71c9ce" id="leftGreenFlag"/>
  </g>
  <g id="flagRight">
   <rect height="144" width="4" y="83" x="725" fill="rgb(255, 255, 255)" id="flagPoleLeft2"/>
   <path d="m688.5,108.83l41,-15.33l0,32l-41,-16.67zm0,0" fill="#71c9ce" id="leftGreenFlag3"/>
   <path d="m688.5,88.83l41,-15.33l0,32l-41,-16.67zm0,0" fill="rgb(244, 160, 160)" id="leftGreenFlag4"/>
  </g>
  <g id="brownHouse">
   <rect height="23" width="23" y="37" x="411" fill="rgb(202, 138, 101)" id="rectangle15"/>
   <rect height="6" width="6" y="41" x="414" fill="rgb(198, 247, 251)" id="rectangle16"/>
   <rect height="6" width="6" y="41" x="426" fill="rgb(198, 247, 251)" id="rectangle17"/>
   <rect height="6" width="6" y="51" x="414" fill="rgb(198, 247, 251)" id="rectangle18"/>
   <rect height="9" width="6" y="51" x="426" fill="rgb(112, 89, 94)" id="rectangle19"/>
   <path d="m422.5,25.38l15.44,12.41l-30.88,0l15.44,-12.41zm0,0" fill="rgb(112, 89, 94)" id="polygon2"/>
   <path d="m427.01,19.3c0.09,-5.51 1.29,-9.66 2.66,-9.28c1.38,0.39 2.42,5.17 2.32,10.68c-0.09,5.51 -1.29,9.66 -2.66,9.28c-1.31,-0.37 -2.33,-4.73 -2.33,-9.98" fill="url(#gradient-oval10)" id="oval10"/>
   <rect height="9" width="6.5" y="26" x="426" fill="rgb(112, 89, 94)" id="rectangle20"/>
  </g>
  <g id="hills">
   <path d="m212,231c0,-98.86 84.62,-179 189,-179c104.38,0 189,80.14 189,179l-189,0l-189,0zm0,0" fill="#71c9ce" id="backHill"/>
   <path d="m333,383c0,-123.71 104.09,-224 232.5,-224c128.41,0 232.5,100.29 232.5,224l-232.5,0l-232.5,0zm0,0" fill="rgb(255, 255, 255)" id="whiteHill"/>
   <path d="m3,368c0,-129.79 113.94,-235 254.5,-235c140.56,0 254.5,105.21 254.5,235l-254.5,0l-254.5,0zm0,0" fill="#a6e3e9" id="leftHill"/>
  </g>
  <g id="yellowTree">
   <ellipse ry="5.5" rx="12" cy="215.5" cx="104" fill="rgb(67, 159, 138)" id="oval"/>
   <path d="m89.5,201.5l13.38,-56l15.62,56l-29,0zm0,0" fill="rgb(246, 213, 70)" id="bezier"/>
   <rect height="37" width="2" y="178" x="103" fill="rgb(175, 148, 108)" id="rectangle"/>
   <path d="m103.5,187.34l5.73,-5.84l1.27,1.3l-6.36,6.48l-0.43,0.22l-0.21,-2.16zm0,0" fill="rgb(175, 148, 108)" id="bezier2"/>
   <path d="m103.5,195.34l5.73,-5.84l1.27,1.3l-6.36,6.48l-0.43,0.22l-0.21,-2.16zm0,0" fill="rgb(175, 148, 108)" id="bezier3"/>
   <path d="m104.5,191.34l-5.73,-5.84l-1.27,1.3l6.36,6.48l0.43,0.22l0.21,-2.16zm0,0" fill="rgb(175, 148, 108)" id="bezier4"/>
  </g>
  <g id="yellowTree2">
   <ellipse ry="4" rx="10.25" cy="187" cx="178.25" fill="rgb(67, 159, 138)" id="oval3"/>
   <path d="m163.5,175.3l13.38,-50.85l15.62,50.85l-29,0zm0,0" fill="rgb(244, 160, 160)" id="bezier9"/>
   <rect height="30" width="2" y="157" x="177" fill="rgb(175, 148, 108)" id="rectangle3"/>
   <path d="m177.5,162.44l5.73,-5.3l1.27,1.18l-6.36,5.89l-0.43,0.19l-0.21,-1.96zm0,0" fill="rgb(175, 148, 108)" id="bezier10"/>
   <path d="m177.5,169.7l5.73,-5.3l1.27,1.18l-6.36,5.89l-0.43,0.19l-0.21,-1.96zm0,0" fill="rgb(175, 148, 108)" id="bezier11"/>
   <path d="m178.5,166.07l-5.73,-5.3l-1.27,1.18l6.36,5.89l0.43,0.19l0.21,-1.96zm0,0" fill="rgb(175, 148, 108)" id="bezier12"/>
  </g>
  <g id="yellowTree3">
   <ellipse ry="4" rx="10.75" cy="195" cx="602.75" fill="rgb(224, 235, 232)" id="oval4"/>
   <path d="m588.5,183.3l13.38,-50.85l15.62,50.85l-29,0zm0,0" fill="rgb(244, 160, 160)" id="bezier13"/>
   <rect height="30" width="2" y="165" x="602" fill="rgb(175, 148, 108)" id="rectangle4"/>
   <path d="m602.5,170.44l5.73,-5.3l1.27,1.18l-6.36,5.89l-0.43,0.19l-0.21,-1.96zm0,0" fill="rgb(175, 148, 108)" id="bezier14"/>
   <path d="m602.5,177.7l5.73,-5.3l1.27,1.18l-6.36,5.89l-0.43,0.19l-0.21,-1.96zm0,0" fill="rgb(175, 148, 108)" id="bezier15"/>
   <path d="m603.5,174.07l-5.73,-5.3l-1.27,1.18l6.36,5.89l0.43,0.19l0.21,-1.96zm0,0" fill="rgb(175, 148, 108)" id="bezier16"/>
  </g>
  <g id="yellowTree4">
   <ellipse ry="4" rx="10" cy="211" cx="679" fill="rgb(224, 235, 232)" id="oval5"/>
   <path d="m664.5,197.5l13.38,-56l15.62,56l-29,0zm0,0" fill="rgb(246, 213, 70)" id="bezier17"/>
   <rect height="37" width="2" y="174" x="678" fill="rgb(175, 148, 108)" id="rectangle5"/>
   <path d="m678.5,183.34l5.73,-5.84l1.27,1.3l-6.36,6.48l-0.43,0.22l-0.21,-2.16zm0,0" fill="rgb(175, 148, 108)" id="bezier18"/>
   <path d="m678.5,191.34l5.73,-5.84l1.27,1.3l-6.36,6.48l-0.43,0.22l-0.21,-2.16zm0,0" fill="rgb(175, 148, 108)" id="bezier19"/>
   <path d="m679.5,187.34l-5.73,-5.84l-1.27,1.3l6.36,6.48l0.43,0.22l0.21,-2.16zm0,0" fill="rgb(175, 148, 108)" id="bezier20"/>
  </g>
  <g id="darkGreenTree2">
   <ellipse ry="4" rx="12" cy="249" cx="645" fill="rgb(224, 235, 232)" id="oval6"/>
   <path d="m627.5,238.51l16.38,-62.02l19.12,62.02l-35.5,0zm0,0" fill="rgb(33, 125, 104)" id="bezier21"/>
   <rect height="33" width="2" y="216" x="644" fill="rgb(175, 148, 108)" id="rectangle6"/>
   <path d="m644.5,222.75l5.73,-5.76l1.27,1.28l-6.36,6.41l-0.43,0.21l-0.21,-2.14zm0,0" fill="rgb(175, 148, 108)" id="bezier22"/>
   <path d="m644.5,230.65l5.73,-5.76l1.27,1.28l-6.36,6.41l-0.43,0.21l-0.21,-2.14zm0,0" fill="rgb(175, 148, 108)" id="bezier23"/>
   <path d="m645.5,226.7l-5.73,-5.76l-1.27,1.28l6.36,6.41l0.43,0.21l0.21,-2.14zm0,0" fill="rgb(175, 148, 108)" id="bezier24"/>
  </g>
  <g id="yellowTree5">
   <ellipse ry="5.5" rx="12" cy="199.5" cx="143" fill="rgb(67, 159, 138)" id="oval2"/>
   <path d="m127.5,185.5l14.77,-69l17.23,69l-32,0zm0,0" fill="rgb(33, 125, 104)" id="bezier5"/>
   <rect height="37" width="2" y="162" x="142" fill="rgb(175, 148, 108)" id="rectangle2"/>
   <path d="m142.5,171.34l5.73,-5.84l1.27,1.3l-6.36,6.48l-0.43,0.22l-0.21,-2.16zm0,0" fill="rgb(175, 148, 108)" id="bezier6"/>
   <path d="m142.5,179.34l5.73,-5.84l1.27,1.3l-6.36,6.48l-0.43,0.22l-0.21,-2.16zm0,0" fill="rgb(175, 148, 108)" id="bezier7"/>
   <path d="m143.5,175.34l-5.73,-5.84l-1.27,1.3l6.36,6.48l0.43,0.22l0.21,-2.16zm0,0" fill="rgb(175, 148, 108)" id="bezier8"/>
  </g>
  <g id="yellowTree6">
   <ellipse ry="5.5" rx="12" cy="90.5" cx="349" fill="rgb(55, 140, 121)" id="oval7"/>
   <path d="m333.5,76.5l14.77,-69l17.23,69l-32,0zm0,0" fill="rgb(143, 209, 130)" id="bezier25"/>
   <rect height="37" width="2" y="53" x="348" fill="rgb(175, 148, 108)" id="rectangle7"/>
   <path d="m348.5,62.34l5.73,-5.84l1.27,1.3l-6.36,6.48l-0.43,0.22l-0.21,-2.16zm0,0" fill="rgb(175, 148, 108)" id="bezier26"/>
   <path d="m348.5,70.34l5.73,-5.84l1.27,1.3l-6.36,6.48l-0.43,0.22l-0.21,-2.16zm0,0" fill="rgb(175, 148, 108)" id="bezier27"/>
   <path d="m349.5,66.34l-5.73,-5.84l-1.27,1.3l6.36,6.48l0.43,0.22l0.21,-2.16zm0,0" fill="rgb(175, 148, 108)" id="bezier28"/>
  </g>
  <g id="yellowTree7">
   <ellipse ry="4" rx="10.25" cy="104" cx="492.25" fill="rgb(55, 140, 121)" id="oval8"/>
   <path d="m477.5,92.3l13.38,-50.85l15.62,50.85l-29,0zm0,0" fill="rgb(33, 125, 104)" id="bezier29"/>
   <rect height="30" width="2" y="74" x="491" fill="rgb(175, 148, 108)" id="rectangle8"/>
   <path d="m491.5,79.44l5.73,-5.3l1.27,1.18l-6.36,5.89l-0.43,0.19l-0.21,-1.96zm0,0" fill="rgb(175, 148, 108)" id="bezier30"/>
   <path d="m491.5,86.7l5.73,-5.3l1.27,1.18l-6.36,5.89l-0.43,0.19l-0.21,-1.96zm0,0" fill="rgb(175, 148, 108)" id="bezier31"/>
   <path d="m492.5,83.07l-5.73,-5.3l-1.27,1.18l6.36,5.89l0.43,0.19l0.21,-1.96zm0,0" fill="rgb(175, 148, 108)" id="bezier32"/>
  </g>
  <g id="blueHouse">
   <rect height="30" width="30" y="121" x="204" fill="rgb(109, 160, 171)" id="rectangle9"/>
   <rect height="8" width="8" y="126" x="208" fill="rgb(198, 247, 251)" id="rectangle10"/>
   <rect height="8" width="8" y="126" x="223" fill="rgb(198, 247, 251)" id="rectangle11"/>
   <rect height="8" width="8" y="139" x="208" fill="rgb(198, 247, 251)" id="rectangle12"/>
   <rect height="12" width="8" y="139" x="223" fill="rgb(112, 89, 94)" id="rectangle13"/>
   <path d="m219,106l19.92,16.12l-39.84,0l19.92,-16.12zm0,0" fill="rgb(112, 89, 94)" id="polygon"/>
   <path d="m225.01,98.09c0.11,-7.16 1.55,-12.56 3.2,-12.06c1.65,0.5 2.9,6.71 2.78,13.88c-0.11,7.16 -1.55,12.56 -3.2,12.06c-1.57,-0.48 -2.79,-6.14 -2.79,-12.97" fill="url(#gradient-oval9)" id="oval9"/>
   <rect height="12" width="7.5" y="107" x="224" fill="rgb(112, 89, 94)" id="rectangle14"/>
  </g>
 </g>
</svg>